inDegrees=yes
name=ik_S50_A11_T02
DataType=double
version=3
OpenSimVersion=4.3-2021-08-27-4bc7ad9
endheader
time	pelvis_tilt	pelvis_list	pelvis_rotation	pelvis_tx	pelvis_ty	pelvis_tz	hip_flexion_r	hip_adduction_r	hip_rotation_r	knee_angle_r	knee_angle_r_beta	ankle_angle_r	subtalar_angle_r	mtp_angle_r	hip_flexion_l	hip_adduction_l	hip_rotation_l	knee_angle_l	knee_angle_l_beta	ankle_angle_l	subtalar_angle_l	mtp_angle_l	lumbar_extension	lumbar_bending	lumbar_rotation	arm_flex_r	arm_add_r	arm_rot_r	elbow_flex_r	pro_sup_r	wrist_flex_r	wrist_dev_r	arm_flex_l	arm_add_l	arm_rot_l	elbow_flex_l	pro_sup_l	wrist_flex_l	wrist_dev_l
15.91999999999975	9.289294234928143	-8.104468556248166	40.09732981803457	0	0.9399999999999999	0	33.08779153982916	-9.842184742834274	-9.297049135720941	35.98607707428902	0.6280755298227915	0	0	0	33.08779153982916	-9.842184742834274	-9.297049135720941	35.98607707428902	0.6280755298227915	0	0	0	1.132722594469519	10.42247329528331	6.215877919491885	77.26926559475007	-3.718882094722188	13.68013739678307	100.8297240452185	-9.962837332466771	0	0	4.251469249701135	-9.167853773786922	-9.606886906920881	6.053962743649937	127.0820881696815	0	0
15.93999999999975	9.282957787714736	-8.094766906568701	40.11761308708541	0	0.9399999999999999	0	33.09003365896768	-9.842283795996646	-9.297334287138549	35.98867778208677	0.6281209207367444	0	0	0	33.09003365896768	-9.842283795996646	-9.297334287138549	35.98867778208677	0.6281209207367444	0	0	0	1.133634778759694	10.43153869783627	6.212382423946198	77.27582868055532	-3.774079708389824	13.83750953012068	100.6317642557768	-9.962362106795691	0	0	4.249103492002701	-9.125148293426692	-9.562939885476396	6.063083059698054	127.0760800704005	0	0
15.95999999999975	9.270693407076132	-8.080135748380343	40.09642191048712	0	0.9399999999999999	0	33.09517159706415	-9.842515041838764	-9.297995749099755	35.99453780463342	0.6282231974244247	0	0	0	33.09517159706415	-9.842515041838764	-9.297995749099755	35.99453780463342	0.6282231974244247	0	0	0	1.137000444361459	10.44210848660604	6.251699015978916	76.61822863749286	-4.216787074839383	13.96031253676161	101.1683090475003	-9.962040631412396	0	0	4.253895661803615	-9.097842017176919	-9.49487049902938	6.080621932171783	127.0903476510871	0	0
15.97999999999975	9.258221068261594	-8.071555401817022	40.09091768044989	0	0.9399999999999999	0	33.10009322845176	-9.842736222718701	-9.298628855573495	36.00015409535727	0.6283212201893049	0	0	0	33.10009322845176	-9.842736222718701	-9.298628855573495	36.00015409535727	0.6283212201893049	0	0	0	1.136388288978543	10.44843864303989	6.292374934999387	75.90149818923767	-4.687630313660261	14.02469955803958	101.8044545833287	-9.96207459253864	0	0	4.262807390943694	-9.044845371649151	-9.436687774565289	6.101949070481972	127.0947844159337	0	0
15.99999999999975	9.238616816788824	-8.062522150087764	40.08895143533655	0	0.9399999999999999	0	33.10492507503577	-9.842953109278147	-9.299250029384323	36.00566955324756	0.6284174830892456	0	0	0	33.10492507503577	-9.842953109278147	-9.299250029384323	36.00566955324756	0.6284174830892456	0	0	0	1.13066540410511	10.45976396931092	6.334678729626249	75.15154561230925	-5.150884364723624	14.05822596837215	102.4485393302265	-9.962288742947267	0	0	4.297422126894784	-9.005856410772763	-9.365065492747545	6.112017106241795	127.1154779825944	0	0
16.01999999999975	9.221456877828183	-8.053666854825989	40.08178942912208	0	0.9399999999999999	0	33.10978124871087	-9.843170908975198	-9.299874099629347	36.0112125060932	0.6285142258666849	0	0	0	33.10978124871087	-9.843170908975198	-9.299874099629347	36.0112125060932	0.6285142258666849	0	0	0	1.128527705232341	10.46823352911756	6.394143348055659	74.3210883869109	-5.729621499836735	14.11032518170571	103.1869416046504	-9.962831436364816	0	0	4.31757689543135	-8.961238171844041	-9.27080461856565	6.13353384859167	127.1109754384282	0	0
16.03999999999975	9.202557175615802	-8.047668546091202	40.06197855689756	0	0.9399999999999999	0	33.11471092207775	-9.843391753395146	-9.300507250854466	36.01684061514381	0.6286124549002793	0	0	0	33.11471092207775	-9.843391753395146	-9.300507250854466	36.01684061514381	0.6286124549002793	0	0	0	1.124356149629006	10.4746258046983	6.466000215312604	73.35473817054968	-6.391060922717098	14.08095907725246	104.2150678878333	-9.963336387224983	0	0	4.347893357662931	-8.912522081639889	-9.162185030083618	6.145461391740136	127.1052896542912	0	0
16.05999999999975	9.189191789675705	-8.039627897820589	40.02309211762041	0	0.9399999999999999	0	33.11968100240767	-9.843614276444679	-9.301145451564416	36.02251339450265	0.6287114635778301	0	0	0	33.11968100240767	-9.843614276444679	-9.301145451564416	36.02251339450265	0.6287114635778301	0	0	0	1.124704647010127	10.4797388994109	6.529750185790109	72.30462920761764	-7.046246194601482	13.98247278584229	105.130696619617	-9.963904768452315	0	0	4.346686851069491	-8.887498369376113	-9.100383413851738	6.150950924760763	127.1085721751593	0	0
16.07999999999975	9.170923891664545	-8.032434456457484	39.9656305883455	0	0.9399999999999999	0	33.12478392762758	-9.84384259748461	-9.301800542885877	36.02833647768293	0.6288130955519436	0	0	0	33.12478392762758	-9.84384259748461	-9.301800542885877	36.02833647768293	0.6288130955519436	0	0	0	1.121326458262867	10.48632494332356	6.599782043316977	71.20678516680817	-7.762112765768858	13.81265745126652	106.1393171714708	-9.964219082639357	0	0	4.328402828536442	-8.876788273457558	-9.054780213594025	6.17382126151604	127.07265697087	0	0
16.09999999999975	9.117259996417379	-8.025047611925935	39.79749088671232	0	0.9399999999999999	0	33.13104408034257	-9.844122657208871	-9.302604284888936	36.0354740872541	0.6289376703396825	0	0	0	33.13104408034257	-9.844122657208871	-9.302604284888936	36.0354740872541	0.6289376703396825	0	0	0	1.100408779642345	10.50452018326068	6.781606097861398	68.78423802196926	-9.359501697272227	13.31362077457814	108.8043799058704	-9.96483755097654	0	0	4.325349568284969	-8.825505737473827	-8.99787934510857	6.208525721710018	127.0695362034933	0	0
16.11999999999975	9.094622161999846	-7.99906532234147	39.70398165967055	0	0.9399999999999999	0	33.13619805876529	-9.844352897062718	-9.303265501155156	36.04135301812276	0.6290402770398376	0	0	0	33.13619805876529	-9.844352897062718	-9.303265501155156	36.04135301812276	0.6290402770398376	0	0	0	1.10659803892669	10.52722726857604	6.86704683510967	67.41577689517295	-10.20001715702885	13.20261748253388	109.7408522389447	-9.963631644513979	0	0	4.274011505169599	-8.743605028290409	-8.913800001176391	6.207376367503199	127.0785164573035	0	0
16.13999999999974	9.082913377059555	-7.996267281963323	39.69413024402945	0	0.9399999999999999	0	33.13837456569008	-9.844448290718105	-9.303541320485023	36.04387632032333	0.6290843169712604	0	0	0	33.13837456569008	-9.844448290718105	-9.303541320485023	36.04387632032333	0.6290843169712604	0	0	0	1.09773972427404	10.53501108387468	6.852859150749934	67.43787323576504	-10.18520701774255	13.22728711377759	109.7168464162518	-9.963692861639164	0	0	4.24488518200669	-8.72806402239557	-8.876404434595534	6.209810287772126	127.0891179061449	0	0
16.15999999999974	9.05952465464172	-7.995360719249977	39.5872730121843	0	0.9399999999999999	0	33.1448312374065	-9.844736837378433	-9.304370091913118	36.05122936842876	0.6292126518707577	0	0	0	33.1448312374065	-9.844736837378433	-9.304370091913118	36.05122936842876	0.6292126518707577	0	0	0	1.084302354412288	10.5399897261266	6.911577647529702	66.04041873100503	-10.9871255863709	13.21694510583887	110.4583818260316	-9.96220393348022	0	0	4.146083601531509	-8.760921233679142	-8.819430603841067	6.240028435658701	127.1793503122201	0	0
16.17999999999974	9.030488427484723	-7.988248793731492	39.48293518948093	0	0.9399999999999999	0	33.14975109245512	-9.844955921271819	-9.305000255493736	36.05684491570206	0.6293106616599782	0	0	0	33.14975109245512	-9.844955921271819	-9.305000255493736	36.05684491570206	0.6293106616599782	0	0	0	1.068052362181823	10.55735170587558	6.946989012544037	64.65586369277381	-11.7398349000702	13.17699402115866	111.4114987047495	-9.961912054112757	0	0	4.133611745807693	-8.712019305863761	-8.898089539130584	6.169643522280578	127.3507782023654	0	0
16.19999999999974	8.988591330990047	-7.991238139131074	39.40208760705778	0	0.9399999999999999	0	33.15499810441689	-9.845189520043782	-9.305672336252925	36.06283031298125	0.6294151265495399	0	0	0	33.15499810441689	-9.845189520043782	-9.305672336252925	36.06283031298125	0.6294151265495399	0	0	0	1.033769275567306	10.57662173586515	6.974177120247946	63.13934299565367	-12.54262397393317	13.41879588564094	112.4877736026394	-9.961617367556991	0	0	4.123568168760337	-8.660035025791364	-8.85674758948228	6.173081149408109	127.3694255378377	0	0
16.21999999999974	8.969236704171578	-7.990228228266834	39.35777166720905	0	0.9399999999999999	0	33.16060352252335	-9.845438789763625	-9.306389915614119	36.06922574102641	0.6295267478260025	0	0	0	33.16060352252335	-9.845438789763625	-9.306389915614119	36.06922574102641	0.6295267478260025	0	0	0	1.01699560990012	10.58521955472909	6.985334808488864	61.41497209402061	-13.33276763274748	13.61131797909085	113.5768603872576	-9.960727589337749	0	0	4.14270249114056	-8.638469067956875	-8.893663764020861	6.117953431373994	127.451864508533	0	0
16.23999999999974	8.942266246415809	-7.997618390974986	39.24819987447641	0	0.9399999999999999	0	33.16654161818168	-9.845702710136276	-9.307149972688379	36.07599731346127	0.6296449340605279	0	0	0	33.16654161818168	-9.845702710136276	-9.307149972688379	36.07599731346127	0.6296449340605279	0	0	0	0.9940170917886593	10.58805105000477	7.032840809385953	59.66141433307246	-14.10908208043003	13.41418659371465	115.0797336241586	-9.960333116827679	0	0	4.093633973529339	-8.57847574364877	-8.757145026451445	6.132636451156518	127.2432913999396	0	0
16.25999999999974	8.912521217854584	-7.994500598483563	39.17863635539234	0	0.9399999999999999	0	33.17131126747756	-9.845914074125226	-9.307759403775147	36.08144634106159	0.6297400375331856	0	0	0	33.17131126747756	-9.845914074125226	-9.307759403775147	36.08144634106159	0.6297400375331856	0	0	0	0.9708220494964213	10.60539884624051	7.046860593017752	57.92404303214319	-14.92920460251634	13.36084990018745	116.0455570438176	-9.959115937569642	0	0	4.063726497048984	-8.595639977170794	-8.92579043084932	6.160975014070343	127.3725449785016	0	0
16.27999999999974	8.893985392361643	-8.004253733523731	39.15274779584102	0	0.9399999999999999	0	33.17647204354592	-9.846142721939223	-9.308418826333734	36.08733876183769	0.6298428796766414	0	0	0	33.17647204354592	-9.846142721939223	-9.308418826333734	36.08733876183769	0.6298428796766414	0	0	0	0.9482808843386663	10.60467083547183	7.059994416460535	56.14968812167308	-15.78152551783663	13.45372528959045	116.9884216740746	-9.958093450429915	0	0	4.060461684334509	-8.615346829292148	-9.009347364104235	6.215330551907966	127.4302068493889	0	0
16.29999999999974	8.812709066281673	-8.053816496646194	39.12090602186967	0	0.9399999999999999	0	33.18313432003502	-9.846438185987139	-9.309270826594298	36.09493153933708	0.6299753986433773	0	0	0	33.18313432003502	-9.846438185987139	-9.309270826594298	36.09493153933708	0.6299753986433773	0	0	0	0.8510578805540371	10.61074429030561	7.055522753650714	54.28267357568825	-16.50802110461795	13.57862801724888	117.8541957829295	-9.956412851416735	0	0	4.1974899316038	-8.565012349107452	-8.970944946740639	6.231904401882242	127.4304086343733	0	0
